<mxfile host="app.diagrams.net" agent="Mozilla/5.0 (Macintosh; Intel Mac OS X 10_15_7) AppleWebKit/537.36 (KHTML, like Gecko) Chrome/130.0.0.0 Safari/537.36" version="24.8.2">
  <diagram name="Page-1" id="oNWXnc4AVdY-KefnaHp2">
    <mxGraphModel dx="2027" dy="1228" grid="1" gridSize="10" guides="1" tooltips="1" connect="1" arrows="1" fold="1" page="1" pageScale="1" pageWidth="1654" pageHeight="1169" math="0" shadow="0">
      <root>
        <mxCell id="0" />
        <mxCell id="1" parent="0" />
        <mxCell id="W2rxgoZBo_toC6Yw7Tje-8" value="" style="rounded=0;whiteSpace=wrap;html=1;strokeWidth=1;" vertex="1" parent="1">
          <mxGeometry x="50" y="210" width="1070" height="150" as="geometry" />
        </mxCell>
        <mxCell id="W2rxgoZBo_toC6Yw7Tje-9" value="" style="rounded=0;whiteSpace=wrap;html=1;strokeWidth=1;" vertex="1" parent="1">
          <mxGeometry x="50" y="40" width="1070" height="170" as="geometry" />
        </mxCell>
        <mxCell id="W2rxgoZBo_toC6Yw7Tje-10" value="&lt;font style=&quot;font-size: 24px;&quot;&gt;UDF L0 - L2&lt;/font&gt;&lt;div&gt;&lt;font style=&quot;font-size: 24px;&quot;&gt;(Fully owner by DevOps)&lt;/font&gt;&lt;/div&gt;" style="rounded=0;whiteSpace=wrap;html=1;strokeWidth=7;fillColor=#d5e8d4;strokeColor=#82b366;fillStyle=auto;" vertex="1" parent="1">
          <mxGeometry x="50" y="380" width="1070" height="180" as="geometry" />
        </mxCell>
        <mxCell id="W2rxgoZBo_toC6Yw7Tje-34" value="&lt;font style=&quot;font-size: 24px;&quot;&gt;Owner by UDF and DataEng Admin&lt;/font&gt;&lt;div&gt;&lt;font style=&quot;font-size: 24px;&quot;&gt;has full access&lt;/font&gt;&lt;/div&gt;" style="rounded=0;whiteSpace=wrap;html=1;dashed=1;dashPattern=8 8;glass=0;fillStyle=auto;fillColor=#d5e8d4;strokeColor=#82b366;" vertex="1" parent="1">
          <mxGeometry x="650" y="40" width="470" height="170" as="geometry" />
        </mxCell>
        <mxCell id="W2rxgoZBo_toC6Yw7Tje-40" value="&lt;font style=&quot;font-size: 24px;&quot;&gt;Owned by UDF Team, but DataEng Admin has a read-only access. Always needs a DevOps help.&lt;/font&gt;" style="rounded=0;whiteSpace=wrap;html=1;fillColor=#fff2cc;strokeColor=#d6b656;fillStyle=auto;strokeWidth=4;glass=0;shadow=1;" vertex="1" parent="1">
          <mxGeometry x="50" y="40" width="600" height="170" as="geometry" />
        </mxCell>
        <mxCell id="W2rxgoZBo_toC6Yw7Tje-42" value="&lt;div&gt;&lt;div&gt;&lt;font style=&quot;font-size: 24px;&quot;&gt;Owner by UDF and DataEng Admin&lt;/font&gt;&lt;div&gt;&lt;font style=&quot;font-size: 24px;&quot;&gt;has full access&lt;/font&gt;&lt;/div&gt;&lt;/div&gt;&lt;/div&gt;" style="rounded=0;whiteSpace=wrap;html=1;dashed=1;dashPattern=8 8;glass=0;fillStyle=auto;shadow=0;fillColor=#d5e8d4;strokeColor=#82b366;" vertex="1" parent="1">
          <mxGeometry x="650" y="210" width="470" height="170" as="geometry" />
        </mxCell>
        <mxCell id="W2rxgoZBo_toC6Yw7Tje-44" value="&lt;font style=&quot;font-size: 24px;&quot;&gt;Owned by UDF Team, but DataEng Admin has a read-only access. Always needs a DevOps help.&lt;/font&gt;" style="rounded=0;whiteSpace=wrap;html=1;fillColor=#fff2cc;strokeColor=#d6b656;fillStyle=auto;strokeWidth=4;glass=0;shadow=1;" vertex="1" parent="1">
          <mxGeometry x="50" y="210" width="600" height="170" as="geometry" />
        </mxCell>
        <mxCell id="W2rxgoZBo_toC6Yw7Tje-45" value="&lt;font style=&quot;font-size: 24px;&quot;&gt;L3&lt;/font&gt;" style="text;html=1;align=center;verticalAlign=middle;whiteSpace=wrap;rounded=0;" vertex="1" parent="1">
          <mxGeometry x="1140" y="270" width="60" height="30" as="geometry" />
        </mxCell>
        <mxCell id="W2rxgoZBo_toC6Yw7Tje-46" value="&lt;font style=&quot;font-size: 24px;&quot;&gt;L4&lt;/font&gt;" style="text;html=1;align=center;verticalAlign=middle;whiteSpace=wrap;rounded=0;" vertex="1" parent="1">
          <mxGeometry x="1140" y="110" width="60" height="30" as="geometry" />
        </mxCell>
      </root>
    </mxGraphModel>
  </diagram>
</mxfile>
